<svg xmlns="http://www.w3.org/2000/svg" width="1280" height="640" viewBox="0 0 1280 640"><defs><linearGradient id="bg" x1="0%" x2="100%" y1="0%" y2="100%"><stop offset="0%" style="stop-color:#0f172a"/><stop offset="50%" style="stop-color:#1e293b"/><stop offset="100%" style="stop-color:#0f172a"/></linearGradient><linearGradient id="accent" x1="0%" x2="100%" y1="0%" y2="0%"><stop offset="0%" style="stop-color:#3b82f6"/><stop offset="100%" style="stop-color:#8b5cf6"/></linearGradient></defs><rect width="1280" height="640" fill="url(#bg)"/><g stroke="#94a3b8" stroke-width="1" opacity=".05"><line x1="0" x2="1280" y1="80" y2="80"/><line x1="0" x2="1280" y1="160" y2="160"/><line x1="0" x2="1280" y1="240" y2="240"/><line x1="0" x2="1280" y1="320" y2="320"/><line x1="0" x2="1280" y1="400" y2="400"/><line x1="0" x2="1280" y1="480" y2="480"/><line x1="0" x2="1280" y1="560" y2="560"/><line x1="160" x2="160" y1="0" y2="640"/><line x1="320" x2="320" y1="0" y2="640"/><line x1="480" x2="480" y1="0" y2="640"/><line x1="640" x2="640" y1="0" y2="640"/><line x1="800" x2="800" y1="0" y2="640"/><line x1="960" x2="960" y1="0" y2="640"/><line x1="1120" x2="1120" y1="0" y2="640"/></g><rect width="1280" height="4" x="0" y="0" fill="url(#accent)"/><g opacity=".15" transform="translate(640, 200)"><circle cx="-200" cy="0" r="60" fill="#3b82f6"/><circle cx="0" cy="-40" r="80" fill="#8b5cf6"/><circle cx="200" cy="0" r="60" fill="#06b6d4"/><circle cx="-100" cy="60" r="50" fill="#f59e0b"/><circle cx="100" cy="60" r="50" fill="#10b981"/></g><rect width="240" height="36" x="520" y="120" fill="url(#accent)" opacity=".9" rx="18"/><text x="640" y="143" fill="#fff" font-family="system-ui, -apple-system, sans-serif" font-size="15" font-weight="600" letter-spacing="1.5" text-anchor="middle">CLAUDE CODE PLUGIN</text><text x="640" y="240" fill="#fff" font-family="system-ui, -apple-system, sans-serif" font-size="72" font-weight="800" letter-spacing="-1" text-anchor="middle">Design Studio</text><text x="640" y="300" fill="#94a3b8" font-family="system-ui, -apple-system, sans-serif" font-size="26" font-weight="400" text-anchor="middle">A virtual design team for Claude Code</text><rect width="200" height="2" x="540" y="330" fill="url(#accent)" opacity=".5" rx="1"/><g><g transform="translate(640, 400) translate(-280, 0)"><circle r="28" fill="#1e293b" stroke="#3b82f6" stroke-width="2"/><text y="6" fill="#3b82f6" font-size="24" text-anchor="middle">P</text><text y="52" fill="#64748b" font-family="system-ui, sans-serif" font-size="11" text-anchor="middle">Product</text></g><g transform="translate(640, 400) translate(-187, 0)"><circle r="28" fill="#1e293b" stroke="#8b5cf6" stroke-width="2"/><text y="6" fill="#8b5cf6" font-size="24" text-anchor="middle">UX</text><text y="52" fill="#64748b" font-family="system-ui, sans-serif" font-size="11" text-anchor="middle">UX</text></g><g transform="translate(640, 400) translate(-93, 0)"><circle r="28" fill="#1e293b" stroke="#06b6d4" stroke-width="2"/><text y="6" fill="#06b6d4" font-size="24" text-anchor="middle">UI</text><text y="52" fill="#64748b" font-family="system-ui, sans-serif" font-size="11" text-anchor="middle">UI</text></g><g transform="translate(640, 400) translate(0, 0)"><circle r="28" fill="#1e293b" stroke="#f59e0b" stroke-width="2"/><text y="6" fill="#f59e0b" font-size="24" text-anchor="middle">C</text><text y="52" fill="#64748b" font-family="system-ui, sans-serif" font-size="11" text-anchor="middle">Content</text></g><g transform="translate(640, 400) translate(93, 0)"><circle r="28" fill="#1e293b" stroke="#10b981" stroke-width="2"/><text y="6" fill="#10b981" font-size="24" text-anchor="middle">R</text><text y="52" fill="#64748b" font-family="system-ui, sans-serif" font-size="11" text-anchor="middle">Research</text></g><g transform="translate(640, 400) translate(187, 0)"><circle r="28" fill="#1e293b" stroke="#f43f5e" stroke-width="2"/><text y="6" fill="#f43f5e" font-size="24" text-anchor="middle">S</text><text y="52" fill="#64748b" font-family="system-ui, sans-serif" font-size="11" text-anchor="middle">System</text></g><g transform="translate(640, 400) translate(280, 0)"><circle r="28" fill="#1e293b" stroke="#a855f7" stroke-width="2"/><text y="6" fill="#a855f7" font-size="24" text-anchor="middle">M</text><text y="52" fill="#64748b" font-family="system-ui, sans-serif" font-size="11" text-anchor="middle">Motion</text></g></g><g><text fill="#475569" font-family="ui-monospace, monospace" font-size="16" text-anchor="middle" transform="translate(640, 560)">/design /design-review /design-system /figma</text></g><rect width="1280" height="4" x="0" y="636" fill="url(#accent)"/></svg>